<?xml version="1.0" encoding="utf-8"?>
<!-- Generator: Adobe Illustrator 24.2.1, SVG Export Plug-In . SVG Version: 6.00 Build 0)  -->
<svg version="1.1" id="Слой_1" xmlns="http://www.w3.org/2000/svg" xmlns:xlink="http://www.w3.org/1999/xlink" x="0px" y="0px"
	 width="362px" height="241px" viewBox="0 0 362 241" style="enable-background:new 0 0 362 241;" xml:space="preserve">
<style type="text/css">
	.st0{fill:#30C2FF;}
	.st1{fill:#FFFFFF;}
	.st2{fill:#FDD835;}
	.st3{fill:none;stroke:#F5F5F5;}
	.st4{fill:#E5E5E5;}
	.st5{fill:#DDDDDD;}
	.st6{fill:#49CAFF;}
	.st7{opacity:0.8;fill:#49CAFF;enable-background:new    ;}
	.st8{opacity:0.3;}
	.st9{fill-rule:evenodd;clip-rule:evenodd;}
	.st10{opacity:0.2;fill-rule:evenodd;clip-rule:evenodd;enable-background:new    ;}
	.st11{opacity:0.3;fill-rule:evenodd;clip-rule:evenodd;enable-background:new    ;}
	.st12{fill:#F5F5F5;}
	.st13{fill:#91DFFF;}
	.st14{opacity:0.8;fill:#FFFFFF;enable-background:new    ;}
	.st15{opacity:0.2;fill:#5275A0;enable-background:new    ;}
	.st16{fill:#FF5722;}
	.st17{fill:#FFBE9E;}
	.st18{fill:#D26552;}
	.st19{fill:#0C2340;}
	.st20{fill:#D8742A;}
	.st21{fill:#EF832B;}
	.st22{fill:#F7D3A9;}
	.st23{fill:#544DB8;}
</style>
<rect class="st0" width="362" height="241"/>
<g>
	<path class="st1" d="M292.8,49H34.1c-2.8,0-5.1,2.3-5.1,5.1v154.9c0,2.8,2.3,5.1,5.1,5.1h258.8c2.8,0,5.1-2.3,5.1-5.1V54.1
		C297.9,51.3,295.7,49,292.8,49z"/>
	<path class="st2" d="M304.3,207.3l-15.4-0.1l-3,8.8l-9.3-0.1l16.3-42.5l8.1,0.1l15.6,42.8l-9.3-0.1L304.3,207.3z M291.4,200.1
		l10.7,0.1l-5.2-16L291.4,200.1z"/>
	<path class="st2" d="M338.4,216.4c-0.4-0.8-0.7-1.7-0.8-2.8c-2.1,2.3-4.8,3.4-8.1,3.3c-3.1,0-5.7-0.9-7.8-2.8c-2-1.8-3-4.1-3-6.8
		c0-3.3,1.3-5.9,3.8-7.7c2.5-1.8,6.2-2.6,10.9-2.6l3.9,0l0-1.8c0-1.5-0.4-2.6-1.1-3.5c-0.7-0.9-1.9-1.3-3.6-1.3
		c-1.4,0-2.6,0.3-3.4,1c-0.8,0.7-1.2,1.6-1.2,2.8l-8.5-0.1c0-1.8,0.6-3.5,1.8-5.1c1.2-1.5,2.8-2.7,4.9-3.6c2.1-0.9,4.4-1.3,7-1.3
		c3.9,0,7,1,9.3,3c2.3,2,3.4,4.7,3.4,8.3l-0.1,13.7c0,3,0.4,5.3,1.2,6.8l0,0.5L338.4,216.4z M331.4,210.5c1.3,0,2.4-0.3,3.5-0.8
		c1.1-0.6,1.9-1.3,2.4-2.2l0.1-5.4l-3.2,0c-4.3,0-6.6,1.4-6.9,4.3l0,0.5c0,1,0.4,1.9,1.1,2.6C329.1,210.1,330.1,210.5,331.4,210.5z"
		/>
</g>
<path class="st3" d="M282.5,74.4H236c-1,0-1.8,0.8-1.8,1.8v8.3c0,1,0.8,1.8,1.8,1.8h46.6c1,0,1.8-0.8,1.8-1.8v-8.3
	C284.3,75.2,283.5,74.4,282.5,74.4z"/>
<path class="st4" d="M274,78.9h-24.2c-1,0-1.8,0.8-1.8,1.8c0,1,0.8,1.8,1.8,1.8H274c1,0,1.8-0.8,1.8-1.8
	C275.7,79.6,275,78.9,274,78.9z"/>
<path class="st4" d="M242.9,77.7h-3.8c-0.6,0-1,0.5-1,1v3.8c0,0.6,0.5,1,1,1h3.8c0.6,0,1-0.5,1-1v-3.8
	C243.9,78.1,243.5,77.7,242.9,77.7z"/>
<path class="st3" d="M282.5,89.1H236c-1,0-1.8,0.8-1.8,1.8v8.3c0,1,0.8,1.8,1.8,1.8h46.6c1,0,1.8-0.8,1.8-1.8v-8.3
	C284.3,89.9,283.5,89.1,282.5,89.1z"/>
<path class="st4" d="M274.6,93.6h-24.8c-1,0-1.8,0.8-1.8,1.8c0,1,0.8,1.8,1.8,1.8h24.8c1,0,1.8-0.8,1.8-1.8
	C276.3,94.4,275.5,93.6,274.6,93.6z"/>
<path class="st4" d="M242.9,92.4h-3.8c-0.6,0-1,0.5-1,1v3.8c0,0.6,0.5,1,1,1h3.8c0.6,0,1-0.5,1-1v-3.8
	C243.9,92.9,243.5,92.4,242.9,92.4z"/>
<path class="st3" d="M282.5,103.9H236c-1,0-1.8,0.8-1.8,1.8v8.3c0,1,0.8,1.8,1.8,1.8h46.6c1,0,1.8-0.8,1.8-1.8v-8.3
	C284.3,104.7,283.5,103.9,282.5,103.9z"/>
<path class="st4" d="M274.6,108.3h-24.8c-1,0-1.8,0.8-1.8,1.8c0,1,0.8,1.8,1.8,1.8h24.8c1,0,1.8-0.8,1.8-1.8
	C276.3,109.1,275.5,108.3,274.6,108.3z"/>
<path class="st4" d="M242.9,107.1h-3.8c-0.6,0-1,0.5-1,1v3.8c0,0.6,0.5,1,1,1h3.8c0.6,0,1-0.5,1-1v-3.8
	C243.9,107.6,243.5,107.1,242.9,107.1z"/>
<path class="st3" d="M282.5,118.6H236c-1,0-1.8,0.8-1.8,1.8v8.3c0,1,0.8,1.8,1.8,1.8h46.6c1,0,1.8-0.8,1.8-1.8v-8.3
	C284.3,119.4,283.5,118.6,282.5,118.6z"/>
<path class="st4" d="M274.6,123.1h-24.8c-1,0-1.8,0.8-1.8,1.8c0,1,0.8,1.8,1.8,1.8h24.8c1,0,1.8-0.8,1.8-1.8
	C276.3,123.8,275.5,123.1,274.6,123.1z"/>
<path class="st4" d="M242.9,121.9h-3.8c-0.6,0-1,0.5-1,1v3.8c0,0.6,0.5,1,1,1h3.8c0.6,0,1-0.5,1-1v-3.8
	C243.9,122.3,243.5,121.9,242.9,121.9z"/>
<path class="st3" d="M282.5,133.3H236c-1,0-1.8,0.8-1.8,1.8v8.3c0,1,0.8,1.8,1.8,1.8h46.6c1,0,1.8-0.8,1.8-1.8v-8.3
	C284.3,134.1,283.5,133.3,282.5,133.3z"/>
<path class="st4" d="M274.6,137.8h-24.8c-1,0-1.8,0.8-1.8,1.8c0,1,0.8,1.8,1.8,1.8h24.8c1,0,1.8-0.8,1.8-1.8
	C276.3,138.6,275.5,137.8,274.6,137.8z"/>
<path class="st4" d="M242.9,136.6h-3.8c-0.6,0-1,0.5-1,1v3.8c0,0.6,0.5,1,1,1h3.8c0.6,0,1-0.5,1-1v-3.8
	C243.9,137.1,243.5,136.6,242.9,136.6z"/>
<g>
	<path class="st1" d="M217.7,85.9H77.5c-2.8,0-5.1,2.3-5.1,5.1v72.1c0,2.8,2.3,5.1,5.1,5.1h140.1c2.8,0,5.1-2.3,5.1-5.1V91
		C222.8,88.2,220.5,85.9,217.7,85.9z"/>
</g>
<path class="st5" d="M205.3,103h-50.1c-1.1,0-2,0.9-2,2v1.8c0,1.1,0.9,2,2,2h50.1c1.1,0,2-0.9,2-2V105
	C207.4,103.9,206.5,103,205.3,103z"/>
<path class="st5" d="M189.4,113h-34.2c-1.1,0-2,0.9-2,2v0.6c0,1.1,0.9,2,2,2h34.2c1.1,0,2-0.9,2-2v-0.6
	C191.5,113.9,190.6,113,189.4,113z"/>
<path class="st5" d="M180,127.2h-25.3c-0.8,0-1.5,0.7-1.5,1.5c0,0.8,0.7,1.5,1.5,1.5H180c0.8,0,1.5-0.7,1.5-1.5
	C181.5,127.8,180.8,127.2,180,127.2z"/>
<path class="st5" d="M189.1,133.6h-34.2c-1,0-1.8,0.8-1.8,1.8c0,1,0.8,1.8,1.8,1.8h34.2c1,0,1.8-0.8,1.8-1.8
	C190.9,134.4,190.1,133.6,189.1,133.6z"/>
<path class="st5" d="M183.2,140.7h-28.3c-1,0-1.8,0.8-1.8,1.8c0,1,0.8,1.8,1.8,1.8h28.3c1,0,1.8-0.8,1.8-1.8
	C185,141.5,184.2,140.7,183.2,140.7z"/>
<path class="st5" d="M178.8,147.8h-24.2c-0.8,0-1.5,0.7-1.5,1.5c0,0.8,0.7,1.5,1.5,1.5h24.2c0.8,0,1.5-0.7,1.5-1.5
	C180.3,148.4,179.6,147.8,178.8,147.8z"/>
<path class="st6" d="M120.7,118.4c1.2-1.4,3.4-1.3,4.5,0.1l13.7,17c1.6,2,0.2,4.9-2.3,4.9l-29.1,0.1c-2.6,0-4-3.1-2.2-5L120.7,118.4
	z"/>
<path class="st7" d="M102.9,124.7c1.2-1.4,3.4-1.3,4.5,0.1l8.6,10.7c1.6,1.9,0.2,4.9-2.3,4.9l-18.3,0.1c-2.6,0-4-3.1-2.2-5
	L102.9,124.7z"/>
<path class="st6" d="M108.8,115.2c-0.6,2.2-2.8,3.5-5,3c-2.2-0.6-3.5-2.8-3-5c0.6-2.2,2.8-3.5,5-3
	C108.1,110.8,109.4,113,108.8,115.2z"/>
<g>
	<path class="st1" d="M44.3,78.1c0-0.5,0.4-0.9,0.9-0.9h13c0.5,0,0.9,0.4,0.9,0.9v13c0,0.5-0.4,0.9-0.9,0.9h-13
		c-0.5,0-0.9-0.4-0.9-0.9V78.1z"/>
</g>
<g class="st8">
	<path class="st9" d="M48.9,82.1c0-0.2,0.1-0.3,0.3-0.3h4.9c0.2,0,0.3,0.1,0.3,0.3v0.9c0,0.2-0.1,0.3-0.3,0.3
		c-0.2,0-0.3-0.1-0.3-0.3v-0.6h-4.3v0.6c0,0.2-0.1,0.3-0.3,0.3c-0.2,0-0.3-0.1-0.3-0.3V82.1z"/>
	<path class="st9" d="M50.5,87.1c0-0.2,0.1-0.3,0.3-0.3h1.9c0.2,0,0.3,0.1,0.3,0.3s-0.1,0.3-0.3,0.3h-1.9
		C50.6,87.4,50.5,87.3,50.5,87.1z"/>
	<path class="st9" d="M51.7,81.8c0.2,0,0.3,0.1,0.3,0.3v4.9c0,0.2-0.1,0.3-0.3,0.3s-0.3-0.1-0.3-0.3v-4.9
		C51.4,82,51.5,81.8,51.7,81.8z"/>
</g>
<g>
	<path class="st1" d="M44.3,97.7c0-0.5,0.4-0.9,0.9-0.9h13c0.5,0,0.9,0.4,0.9,0.9v13c0,0.5-0.4,0.9-0.9,0.9h-13
		c-0.5,0-0.9-0.4-0.9-0.9V97.7z"/>
</g>
<g class="st8">
	<path class="st9" d="M49.6,101.7c-0.2,0-0.3,0.1-0.3,0.3v4.3c0,0.2,0.1,0.3,0.3,0.3h4.3c0.2,0,0.3-0.1,0.3-0.3V102
		c0-0.2-0.1-0.3-0.3-0.3H49.6z M48.6,102c0-0.5,0.4-0.9,0.9-0.9h4.3c0.5,0,0.9,0.4,0.9,0.9v4.3c0,0.5-0.4,0.9-0.9,0.9h-4.3
		c-0.5,0-0.9-0.4-0.9-0.9V102z"/>
	<path class="st9" d="M50.6,103c-0.1,0-0.2,0.1-0.2,0.2s0.1,0.2,0.2,0.2s0.2-0.1,0.2-0.2S50.7,103,50.6,103z M49.9,103.1
		c0-0.4,0.3-0.8,0.8-0.8c0.4,0,0.8,0.3,0.8,0.8s-0.3,0.8-0.8,0.8C50.2,103.9,49.9,103.5,49.9,103.1z"/>
	<path class="st9" d="M52.7,103.4c0.1-0.1,0.3-0.1,0.4,0l1.5,1.5c0.1,0.1,0.1,0.3,0,0.4c-0.1,0.1-0.3,0.1-0.4,0L53,104l-3.2,3.2
		c-0.1,0.1-0.3,0.1-0.4,0c-0.1-0.1-0.1-0.3,0-0.4L52.7,103.4z"/>
</g>
<g>
	<path class="st1" d="M44.3,117.5c0-0.5,0.4-0.9,0.9-0.9h13c0.5,0,0.9,0.4,0.9,0.9v13c0,0.5-0.4,0.9-0.9,0.9h-13
		c-0.5,0-0.9-0.4-0.9-0.9V117.5z"/>
</g>
<path class="st10" d="M49.4,121.6c-0.2,0-0.3,0.1-0.3,0.3v4.3c0,0.2,0.1,0.3,0.3,0.3h4.3c0.2,0,0.3-0.1,0.3-0.3V122
	c0-0.2-0.1-0.3-0.3-0.3H49.4z M48.5,122c0-0.5,0.4-0.9,0.9-0.9h4.3c0.5,0,0.9,0.4,0.9,0.9v4.3c0,0.5-0.4,0.9-0.9,0.9h-4.3
	c-0.5,0-0.9-0.4-0.9-0.9V122z"/>
<g>
	<path class="st1" d="M44.3,137.3c0-0.5,0.4-0.9,0.9-0.9h13c0.5,0,0.9,0.4,0.9,0.9v13c0,0.5-0.4,0.9-0.9,0.9h-13
		c-0.5,0-0.9-0.4-0.9-0.9V137.3z"/>
</g>
<path class="st11" d="M51.5,140.6c0.1,0,0.2,0,0.3,0l3.1,1.5c0.1,0.1,0.2,0.2,0.2,0.3c0,0.1-0.1,0.2-0.2,0.3l-3.1,1.5
	c-0.1,0-0.2,0-0.3,0l-3.1-1.5c-0.1-0.1-0.2-0.2-0.2-0.3c0-0.1,0.1-0.2,0.2-0.3L51.5,140.6z M49.2,142.5l2.4,1.2l2.4-1.2l-2.4-1.2
	L49.2,142.5z"/>
<path class="st11" d="M48.3,145.4c0.1-0.2,0.3-0.2,0.4-0.1l3,1.5l3-1.5c0.2-0.1,0.3,0,0.4,0.1c0.1,0.2,0,0.3-0.1,0.4l-3.1,1.5
	c-0.1,0-0.2,0-0.3,0l-3.1-1.5C48.3,145.7,48.2,145.6,48.3,145.4z"/>
<path class="st11" d="M48.3,143.9c0.1-0.2,0.3-0.2,0.4-0.1l3,1.5l3-1.5c0.2-0.1,0.3,0,0.4,0.1c0.1,0.2,0,0.3-0.1,0.4l-3.1,1.5
	c-0.1,0-0.2,0-0.3,0l-3.1-1.5C48.3,144.2,48.2,144,48.3,143.9z"/>
<path class="st12" d="M29,53.7c0-2.8,2.3-5.1,5.1-5.1h258.8c2.8,0,5.1,2.3,5.1,5.1v7.2H29V53.7z"/>
<path class="st5" d="M37.1,56.8c1.1,0,2-0.9,2-2s-0.9-2-2-2c-1.1,0-2,0.9-2,2S36,56.8,37.1,56.8z"/>
<path class="st5" d="M45.3,56.8c1.1,0,2-0.9,2-2s-0.9-2-2-2s-2,0.9-2,2S44.2,56.8,45.3,56.8z"/>
<path class="st5" d="M53.5,56.8c1.1,0,2-0.9,2-2s-0.9-2-2-2c-1.1,0-2,0.9-2,2S52.4,56.8,53.5,56.8z"/>
<path class="st13" d="M237.1,114.5l-46.9-10.5c-2.2-0.5-3.7-2.8-3.1-5l7.9-35.2c0.5-2.2,2.8-3.7,5-3.1l46.9,10.5
	c2.2,0.5,3.7,2.8,3.1,5l-7.9,35.2C241.6,113.6,239.4,115,237.1,114.5z"/>
<path class="st1" d="M223,83.1c1.3-0.9,3.1-0.4,3.7,1l7.8,16.8c0.9,1.9-0.8,4-2.9,3.5l-24.1-5.9c-2.1-0.5-2.6-3.3-0.8-4.6L223,83.1z
	"/>
<path class="st14" d="M207,84.6c1.3-0.9,3.1-0.4,3.7,1l4.9,10.6c0.9,1.9-0.8,4-2.9,3.5l-15.1-3.7c-2.1-0.5-2.6-3.3-0.8-4.6L207,84.6
	z"/>
<path class="st1" d="M213.9,78c-0.9,1.7-3.1,2.3-4.8,1.4c-1.7-0.9-2.3-3.1-1.4-4.8c0.9-1.7,3.1-2.3,4.8-1.4
	C214.2,74.2,214.8,76.3,213.9,78z"/>
<path class="st15" d="M217.1,38.8c-14.1-0.6-33.5,9.9-26.6,35.4c-0.1,2.2,1.1,3.7,2.5,3.3c1.4-0.4,0.1-4.5,0.1-4.5
	c2.4-18.9,6.8-22.2,14.2-22.1l17.5-0.1c4.3,0.6,12.2,3.7,13.4,18.8l4.3,0.8C242.8,59.4,240.2,39.7,217.1,38.8z"/>
<path class="st16" d="M217.1,36.6c-14.1-0.6-33.5,9.9-26.6,35.4l2.6-1.3c2.4-18.9,6.8-22.2,14.2-22.1l17.5-0.1
	c4.3,0.6,12.4,4.5,13.6,19.6h4.1C242.8,57.2,240.2,37.5,217.1,36.6z"/>
<path class="st17" d="M214.2,37l-2.1,4.6c0,0,0.3,2.6,2.8,2.5c2.5-0.1,2.9-1.3,2.9-1.3l0.3-5.3L214.2,37z"/>
<path class="st17" d="M224.9,33.2c-2.4,4.2-3.4,5.5-6.5,6.1c-4,0.8-8.6-1.9-6.5-8.6c1.7-5.5,4.3-4.7,6.9-4.5
	C221.3,26.5,227.5,28.6,224.9,33.2z"/>
<path class="st18" d="M215.5,29.9c-0.6-0.3-1.5-0.1-1.9,0.5c-0.5,0.6-0.8,1.3-0.6,2c-1,0-1.8,1-1.7,1.9c-0.7-1.5-0.3-3.2-0.4-4.7
	c-0.1-1.6,0.1-3.3,1-4.5c0.4-0.5,1-0.9,1.5-1.2c2.2-1.2,4.9-1.2,7.2-0.1c0.5,0.2,1.6,1,3.2,0.6c3.1-0.8,4.9,1.3,3,3.3
	c0.6,0.2,1.3,0.5,1.5,1c0.1,0.1,0.1,0.3,0,0.5c-0.1,0.1-0.2,0.1-0.3,0.2c-0.5,0.2-1.1,0.2-1.6,0.1c0.2,0.2,1.3,0.3,1.7,0.9
	c0.9,1.7-2.7,0.9-3.3,0.7c0.6,0.1,2.3,1.5,1.7,2.4c-0.1,0.2-2.4,1.5-4.7-1.3c-0.6-0.6-1.3-1.3-2-1.5c-0.6-0.1-1.3,0.1-1.9,0.3
	c-0.4,0.1-1.6,0.8-1.9,0.4C215.7,30.9,216.2,30.2,215.5,29.9z"/>
<path class="st17" d="M238.8,68.2c-0.6,2.2-1.3,2.4-0.5,2.7c0.8,0.3,1.4-0.8,1.4-0.8l3.5,0.7c0,0-0.8-2.3-1.3-2.6
	C241.2,67.9,238.8,68.2,238.8,68.2z"/>
<path class="st17" d="M193.1,70.7c0.5,1.1,0.6,1.1,1.2,2.5c1.2,2.6-1.6,6.8-3.4,2.2c-0.5-1.3-0.5-3.5-0.5-3.5L193.1,70.7z"/>
<path class="st17" d="M243.3,126.7l-1.6,4.2l3.8,2.1l0.4-4.8L243.3,126.7z"/>
<path class="st17" d="M245.7,116.4c-8.7,3.8-5.2,12.9,0.1,11.9c2.6-0.6,3.9-8.8,3.9-8.8L245.7,116.4z"/>
<path class="st19" d="M248.5,115.1c-0.3-0.6-0.6-1.1-1-1.5c-0.5-0.3-1.2-0.5-1.7-0.1c-0.6,0.6-0.2,1.5,0.3,2.1
	c-0.5,0.1-1.1-0.3-1.5,0.1c-0.3,0.3-0.2,0.8,0,1.1c0.4,0.8,1,1.5,1.8,2c-0.4,0.3-1,0.8-0.7,1.2c0.1,0.1,0.2,0.2,0.3,0.3
	c0.1,0.3,0,0.6-0.1,0.9c-0.3,0.5-0.6,0.9-0.9,1.3c0.3-0.4,1-0.2,1.3,0.2c0.2,0.5,0,1-0.3,1.4c-0.2,0.2-0.4,0.4-0.7,0.4
	c-0.2,0.1-1.3,3.3-0.5,4c1,0.8,4.5,0.1,4.9-0.8c0.5,0.6,1.3,1,1.9,0.8c0.7-0.1,1.3-1,0.9-1.7c0.8,0.3,1.7,0,2.3-0.6
	c0.6-0.6,0.6-1.6,0.2-2.4c0.4-0.1,0.5-0.7,0.4-1.1c-0.2-0.9-0.9-1.6-1.8-1.9c0.4,0,0.8-0.4,0.8-0.9c0-0.4-0.2-0.8-0.5-1.2
	c-0.8-1-1.8-1.3-3-1.5C249.8,117.3,249.1,116.1,248.5,115.1z"/>
<path class="st19" d="M258.7,211.5l4.6-0.8l0.6,4l-6.9,1.5h-4.8L258.7,211.5z"/>
<path class="st20" d="M245.2,164.2c-0.2,1.1-7.3,30.3,13,47.8l5.8-1.4c0,0-6.8-6.7-10-18.7c-3-11.4-0.6-12.5,1.2-18.8
	c2-6.9,0.5-12,0.5-12L245.2,164.2z"/>
<path class="st19" d="M240.3,214.9h4v3.8h-5.9H231L240.3,214.9z"/>
<path class="st21" d="M235.7,164.1c-3.2,8-8.7,35.4,3.3,50.8h6c0,0-4.7-5.4-5.2-18c-0.5-12.6,2.5-18.1,4.7-22.3
	c2.1-4.1,6.1-10.5,6.1-10.5H235.7z"/>
<path class="st0" d="M231.6,114.1c-1.6,5.5-2.1,15.7,5.8,19.8l5.3-1.3c0,0-9.5-4.9-7.4-17.5L231.6,114.1z"/>
<path class="st0" d="M217,111.3l4.1-0.5c0,0-0.5,18.2,19.4,19.7c15.2,1.2,16.3,31.3,16.3,31.3c-4.9,3.5-13.1,4.5-23.6,3.8
	c0,0,0.7-21.5-1-27.4C232.2,138.1,215.8,132.6,217,111.3z"/>
<path class="st17" d="M212.1,108.2c-0.7,0.8,2.2,1.8,5,3.1l3.5-0.4c0,0,0.1-0.7,0-1.5c-0.1-0.8-0.4-1.2-0.8-0.6
	c-0.4,0.6-2.2,0.8-3.1,0.3C216,108.5,212.8,107.4,212.1,108.2z"/>
<path class="st17" d="M231.6,114.1c-1.3-1.3-1-1.2-1-1.2l4,0.9c0,0,0.9-1.9,1.6-2c0.8-0.1-0.6,1.3-0.3,1.9c0.3,0.5-0.8,1.5-0.8,1.5
	L231.6,114.1z"/>
<path class="st22" d="M39.5,136.3c0,0,0.9,2.8,1.4,4.5c0,0-4.7-0.2-6.3-2.2l1.7-4.1L39.5,136.3z"/>
<path class="st19" d="M45,167.2c0,0,7.4,24-4.4,47.2h-3.5c0,0,6.9-26.2-1.7-47.5L45,167.2z"/>
<path class="st1" d="M39.9,214.5h-2.7v2.5h3.9H46L39.9,214.5z"/>
<path class="st1" d="M18.3,210.7l-2.1-0.8l-1.3,3.4l4,1.1h4L18.3,210.7z"/>
<path class="st19" d="M38.6,168c0,0-1.1,25.1-19.9,43l-3.3-1.1c0,0,15.4-22.4,14.3-45.3L38.6,168z"/>
<path class="st17" d="M44.3,112.2l0.8-1.2l0.1-0.1l0.3-1.1l-0.7-0.3l-0.2-1.1c-0.1-0.4-0.7-0.6-1-0.5c-0.6,0.4-1.2,0.7-1.6,1.2
	c-0.1,0.1-0.3,0.4-0.2,0.6l0.3,1.9c0,0.2,0.2,0.5,0.6,0.6l1.1,0.3C43.7,112.6,44.1,112.5,44.3,112.2z"/>
<path class="st20" d="M29.2,143.8c0,0,9.6-10.4,10.2-14.1c0.6-3.9,2-18.2,2-18.2l3,0.6c0,0,0.9,20.5,0.2,22.9
	c-0.9,2.4-6.7,14.4-10.5,15.5C30.4,151.7,27.8,147.9,29.2,143.8z"/>
<path class="st17" d="M42.5,126.9c0,0,2.2,7.2,0.8,9.1c-1.4,1.9-6.4,0.2-8.3-2.7c-2-3-2.4-9.4,0.9-10
	C39.4,122.6,41.7,124.1,42.5,126.9z"/>
<path class="st21" d="M29.7,169.1c0,0-1.9-20.9-1.9-26.5c0-0.3,0-0.5,0-0.8c1.4-3.6,5-3.6,6.4-3.3c1.4,0.3,7.1,2,7.1,2.4
	c1.9,1.4,3.5,3.1,3.6,3.4c0,0,5.2,10.8,0.6,23.8L29.7,169.1z"/>
<path class="st17" d="M57.1,112.4l0.3-1.4v-0.2l0.5-0.9l0.8,0.3l0.9-0.6c0.5-0.3,0.9,0,1.1,0.5c0.2,0.6,0.3,1.4,0.3,1.9
	c0,0.2-0.2,0.5-0.3,0.6l-1.6,1.3c-0.2,0.2-0.5,0.2-0.8,0l-0.9-0.5C57.3,113.1,57.1,112.8,57.1,112.4z"/>
<path class="st21" d="M38.9,142.2c0,0,11.3-8.5,12.5-12.1c1.3-3.6,5.2-17.6,5.2-17.6l2.8,1.1c0,0-2.7,20.4-3.9,22.6
	c-1.3,2.2-9.1,13-13,13.5C38.8,150.1,36.7,145.9,38.9,142.2z"/>
<path class="st23" d="M34.5,123.1c0,0,5.8-2.5,8.5,2.7c1.4,3.1-3.1,0.2-4.1,1.1c-0.9,0.9,1.1,3,0.6,3.8c-0.6,0.8-1.6-1.3-2.2-0.2
	c-0.6,1.1,0.9,1.3,1.9,2.7c0.9,1.3-0.9,3.1,0.6,4.4c1.4,1.1,5.5,2,3,8.3c-2.5,6.3,4.1,7.8,1.3,16.3c-2.8,8.5-21.3,13.3-24.8,3.1
	c-3.5-10,8.2-12.5,7.4-17.1c-0.8-4.5-3.3-5.6,0.2-10c3.5-4.5,5.6-7.1,4.5-10C30.4,125.2,33.3,123.1,34.5,123.1z"/>
</svg>
